/* XPM */
static char *hatch[] = {
/* columns rows colors chars-per-pixel */
"48 37 120 2",
"   c #000000",
".  c #060806",
"X  c #0d0d0d",
"o  c #0e100f",
"O  c #0d1010",
"+  c #130f13",
"@  c #121212",
"#  c #1c1c1c",
"$  c #221f22",
"%  c #232323",
"&  c #282728",
"*  c #2c2d2c",
"=  c #2f2f32",
"-  c #30302d",
";  c #343434",
":  c #3c373c",
">  c #393939",
",  c #2d2d4b",
"<  c #30314d",
"1  c #333351",
"2  c #333955",
"3  c #3a3655",
"4  c #3a3b55",
"5  c #3c3c59",
"6  c #3e4141",
"7  c #413d5c",
"8  c #424142",
"9  c #434348",
"0  c #434943",
"q  c #4b4b4b",
"w  c #44455e",
"e  c #42495e",
"r  c #514c51",
"t  c #545555",
"y  c #535953",
"u  c #5c5454",
"i  c #5a555a",
"p  c #585856",
"a  c #595959",
"s  c #454560",
"d  c #4b4b64",
"f  c #504b63",
"g  c #504d69",
"h  c #535169",
"j  c #555a6e",
"k  c #5c586d",
"l  c #5c5770",
"z  c #5b5c72",
"x  c #5e6160",
"c  c #5c6273",
"v  c #615f5d",
"b  c #635f63",
"n  c #646465",
"m  c #67676c",
"M  c #656966",
"N  c #656c68",
"B  c #6a6a67",
"V  c #6b6c6e",
"C  c #636371",
"Z  c #616278",
"A  c #63697b",
"S  c #69627b",
"D  c #696b74",
"F  c #6b6b7a",
"G  c #6c736d",
"H  c #726c6b",
"J  c #726d73",
"K  c #737272",
"L  c #767379",
"P  c #737973",
"I  c #77787c",
"U  c #7c7b7c",
"Y  c #6c6c80",
"T  c #716c82",
"R  c #717281",
"E  c #747489",
"W  c #7a728b",
"Q  c #7b7b82",
"!  c #7c7c8e",
"~  c #7c8287",
"^  c #837d7f",
"/  c #827d8c",
"(  c #837b91",
")  c #86867e",
"_  c #848486",
"`  c #83838c",
"'  c #80888d",
"]  c #8d8b8d",
"[  c #868194",
"{  c #858992",
"}  c #878a98",
"|  c #8a8494",
" . c #898a92",
".. c #8d8c9c",
"X. c #8e9089",
"o. c #8a9197",
"O. c #948e97",
"+. c #928c9c",
"@. c #909693",
"#. c #93949b",
"$. c #96999b",
"%. c #989194",
"&. c #98929a",
"*. c #989d95",
"=. c #9c999c",
"-. c #9a97a2",
";. c #9a9ca4",
":. c #99a29f",
">. c #a29da4",
",. c #a19fa9",
"<. c #a3a7af",
"1. c #a1a8a9",
"2. c #abaaad",
"3. c #a5acb1",
"4. c #a8a6b0",
"5. c #b1aaaf",
"6. c #b2b2be",
"7. c #bbbeb8",
"8. c #b9b9c0",
"9. c None",
/* pixels */
"9.9.9.9.9.9.9.9.9.9.9.9.9.9.9.9.9.9.9.9.9.9.9.9.9.9.9.9.9.9.9.9.9.9.9.9.9.9.9.9.9.9.9.9.9.9.9.9.",
"9.9.9.9.9.9.9.9.9.9.9.9.9.9.9.9.9.9.9.9.9.9.9.9.9.9.9.9.9.9.9.9.9.9.9.9.9.9.9.9.9.9.9.9.9.9.9.9.",
"9.9.9.9.9.9.9.9.9.9.9.9.9.9.9.9.9.9.9.9.9.9.9.9.9.9.9.9.9.9.9.9.9.9.9.9.9.9.9.9.9.9.9.9.9.9.9.9.",
"9.9.9.9.9.9.9.9.9.9.9.9.9.9.9.9.9.9.9.9.9.9.9.9.9.9.9.9.9.9.9.9.9.9.9.9.  . X * H $.K X 9.9.9.9.",
"9.9.9.9.9.9.9.9.9.9.9.9.9.9.9.9.9.9.9.9.9.9.9.9.9.9.9.9.9.9.9.9.9.9.  @ = V 4.+.F j o.=   9.9.9.",
"9.9.9.9.9.9.9.9.9.9.9.9.9.9.9.9.9.9.9.9.9.9.9.9.9.9.9.9.9.9.9.9.9.. : I | S 5 , 2 ' N @   9.9.9.",
"9.9.9.9.9.9.9.9.9.9.9.9.9.9.9.9.9.9.9.9.9.9.9.9.9.9.9.9.9.9.9.9.  a  .c 3 , , , | G @     9.9.9.",
"9.9.9.9.9.9.9.9.9.9.9.9.9.9.9.9.9.9.9.9.9.9.9.9.9.9.9.9.9.9.9.  y ( < , , , 1 ! G .       9.9.9.",
"9.9.9.9.9.9.9.9.9.9.9.9.9.9.9.9.9.9.9.9.9.9.9.9.9.9.9.9.9.9.  =  .4 , , , < T ` +       9.9.9.9.",
"9.9.9.9.9.9.9.9.9.9.9.9.9.9.9.9.9.9.9.9.9.9.9.9.9.9.9.9.9.9.@ J j , , , , l O.&       9.9.9.9.9.",
"9.9.9.9.9.9.9.9.9.9.9.9.9.9.9.9.9.9.9.9.9.9.9.9.9.9.9.9.9.  8 ! 1 , , , 3 ;.:         9.9.9.9.9.",
"9.9.9.9.9.9.9.9.9.9.9.9.9.> p t a p p p p p t t p p p p p M >.f , , , < ] u       9.9.9.9.9.9.9.",
"9.9.9.9.9.9.9.9.9.9.9.9.9.> p > ; ; ; ; > = > > = > = > > ] / , , , , F @.        9.9.9.9.9.9.9.",
"9.9.9.9.9.9.9.9.9.9.9.9.9.> t 9.9.9.9.9.9.9.9.9.9.9.9.9.+ =.4 , , < d ] &       9.9.9.9.9.9.9.9.",
"9.9.9.9.9.9.9.9.9.9.9.9.9.> t 9.9.9.9.9.9.9.9.9.9.9.9.  J Y , , , 1 ( p .       9.9.9.9.9.9.9.9.",
"9.9.9.9.9.9.9.9.9.9.9.9.9.> t 9.9.9.9.9.9.9.9.9.9.9.  * { 4 , , < A *.#     9.9.9.9.9.9.9.9.9.9.",
"9.9.9.9.9.9.9.9.9.9.9.9.9.> t 9.9.9.9.9.9.9.9.9.9.9.. n F < , , 4 1.q X     9.9.9.9.9.9.9.9.9.9.",
"9.9.9.9.9.9.9.9.9.9.9.9.9.> t 9.9.9.9.9.9.9.9.9.9.9.%  .s , , , ] B % X   9.9.9.9.9.9.9.9.9.9.9.",
"9.9.9.9.9.9.9.9.9.9.9.9.9.> p # n 2.N . 9.9.9.9.9.. a E < , , z X.o $ X   9.9.9.9.9.9.9.9.9.9.9.",
"9.9.9.9.9.9.9.9.9.9.9.9.9.6 ) #.Y 4 [ a     9.9.9.@ 5.w , , 7 +.7 . * # 9.9.9.9.9.9.9.9.9.9.9.9.",
"9.9.9.9.9.9.9.9.9.9.9.9.  D $.d , , e $.$   9.9.9.b Y , , < F H X X 0 % 9.9.9.9.9.9.9.9.9.9.9.9.",
"9.9.9.9.9.9.9.9.9.9.9.  ; { s , , , < ! p     9.O #.1 , , 3 &.-   X t % 9.9.9.9.9.9.9.9.9.9.9.9.",
"9.9.9.9.9.9.9.9.9.9.9.9.; =.~ 1 , , , l / @     M C , , , W i .   X a % 9.9.9.9.9.9.9.9.9.9.9.9.",
"9.9.9.9.9.9.9.9.9.9.9.9.  0 7.c , , , 5 ..;   % Q 7 , , d =.o     + a % 9.9.9.9.9.9.9.9.9.9.9.9.",
"9.9.9.9.9.9.9.9.9.9.9.9.9.> / 2.5 , , < W k . r Y < , < #.9       O a % 9.9.9.9.9.9.9.9.9.9.9.9.",
"9.9.9.9.9.9.9.9.9.9.9.9.9.> p m c , , , h %.% ] w , , l I o       X a % 9.9.9.9.9.9.9.9.9.9.9.9.",
"9.9.9.9.9.9.9.9.9.9.9.9.9.> t = } 4 , , , >./ L , , 5 ..:       9.X a % 9.9.9.9.9.9.9.9.9.9.9.9.",
"9.9.9.9.9.9.9.9.9.9.9.9.9.> t X J z , , < F 6.5 , , A L X     9.9.@ a % 9.9.9.9.9.9.9.9.9.9.9.9.",
"9.9.9.9.9.9.9.9.9.9.9.9.9.> t   v ~ 1 , , 7 k , , 1 -.;       9.9.X a % 9.9.9.9.9.9.9.9.9.9.9.9.",
"9.9.9.9.9.9.9.9.9.9.9.9.9.> t 9.# ~ 4 , , , , , , S P       9.9.9.X a % 9.9.9.9.9.9.9.9.9.9.9.9.",
"9.9.9.9.9.9.9.9.9.9.9.9.9.> t 9.  _ k , , , , , 7 4.@       9.9.9.X p % 9.9.9.9.9.9.9.9.9.9.9.9.",
"9.9.9.9.9.9.9.9.9.9.9.9.9.> p * * n } , , , , , / L X # * * * * * > a % 9.9.9.9.9.9.9.9.9.9.9.9.",
"9.9.9.9.9.9.9.9.9.9.9.9.9.> p a p B 8.1 , , , g #.> $ : p p a i a a a & 9.9.9.9.9.9.9.9.9.9.9.9.",
"9.9.9.9.9.9.9.9.9.9.9.9.9.  . . . . r :.R Z D ;.i .   . . . . . .   .   9.9.9.9.9.9.9.9.9.9.9.9.",
"9.9.9.9.9.9.9.9.9.9.9.9.9.9.9.9.9.9.  ; n M N > .     9.9.9.9.9.9.9.9.9.9.9.9.9.9.9.9.9.9.9.9.9.",
"9.9.9.9.9.9.9.9.9.9.9.9.9.9.9.9.9.9.9.                9.9.9.9.9.9.9.9.9.9.9.9.9.9.9.9.9.9.9.9.9.",
"9.9.9.9.9.9.9.9.9.9.9.9.9.9.9.9.9.9.9.9.            9.9.9.9.9.9.9.9.9.9.9.9.9.9.9.9.9.9.9.9.9.9."
};
